<svg aria-hidden="true" style="position: absolute; width: 0; height: 0; overflow: hidden;" version="1.1" xmlns="http://www.w3.org/2000/svg" xmlns:xlink="http://www.w3.org/1999/xlink">
<defs>
<symbol id="logo" viewBox="0 0 46 32">
<defs>
    <linearGradient id="gradient" x1="0%" y1="0%" x2="100%" y2="0%">
      <stop offset="0%" style="stop-color:#D4E232;stop-opacity:1" />
      <stop offset="100%" style="stop-color:#8A9421;stop-opacity:1" />
    </linearGradient>
    <linearGradient id="backGradient" x1="0%" y1="0%" x2="100%" y2="0%">
      <stop offset="0%" style="stop-color:#8A9421;stop-opacity:1" />
      <stop offset="100%" style="stop-color:#D4E232;stop-opacity:1" />
    </linearGradient>
  </defs>
<path fill="url(#gradient)" style="fill: var(--color1, url(#gradient))" d="M34.113 2.165c-0.548-0.548-2.165-1.732-3.031-2.165 1.212 0.693 2.093 3.175 2.382 4.33l-3.464 0.649c0.144 0.072 0.649 0.649 1.948 0.866 0.955 0.159 1.66 0.216 2.382 0.216 0 0.072 0.173 0.433 0.866 1.299s3.175 3.392 4.33 4.547l4.113-3.464c0 0-0.433-1.299-1.948-2.598-1.422-1.219-4.763-2.526-6.928-2.814 0 0 0-0.216-0.649-0.866z"></path>
<path fill="url(#backGradient)" style="fill: var(--color1, url(#backGradient))" d="M34.763 17.97c-1.212-1.212 5.413-6.856 8.877-9.526 0 0 0.701 1.46 0.866 3.031 0.159 1.516 0.216 3.031 0 4.763-0.649 0.577-2.208 1.819-3.248 2.165-1.299 0.433-4.979 1.082-6.495-0.433z"></path>
<path fill="#000" style="fill: var(--color1, #000)" d="M37.144 17.32c-0.359 0-0.65-0.291-0.65-0.649s0.291-0.649 0.65-0.649c0.359 0 0.65 0.291 0.65 0.649s-0.291 0.649-0.65 0.649z"></path>
<path  d="M1.12 18.667v-11.52h3.728c0.091 0 0.277 0.003 0.56 0.008s0.555 0.024 0.816 0.056c0.928 0.112 1.715 0.435 2.36 0.968s1.136 1.211 1.472 2.032c0.336 0.821 0.504 1.72 0.504 2.696s-0.168 1.875-0.504 2.696c-0.336 0.821-0.827 1.499-1.472 2.032s-1.432 0.856-2.36 0.968c-0.261 0.032-0.533 0.051-0.816 0.056s-0.469 0.008-0.56 0.008h-3.728zM3.328 16.619h1.52c0.144 0 0.339-0.003 0.584-0.008 0.245-0.011 0.467-0.035 0.664-0.072 0.501-0.101 0.909-0.336 1.224-0.704 0.32-0.368 0.555-0.811 0.704-1.328 0.155-0.517 0.232-1.051 0.232-1.6 0-0.576-0.080-1.123-0.24-1.64-0.155-0.517-0.392-0.955-0.712-1.312s-0.723-0.584-1.208-0.68c-0.197-0.043-0.419-0.067-0.664-0.072s-0.44-0.008-0.584-0.008h-1.52v7.424zM11.146 18.667v-11.52h4.864c0.112 0 0.261 0.005 0.448 0.016 0.192 0.005 0.363 0.021 0.512 0.048 0.688 0.107 1.251 0.333 1.688 0.68 0.443 0.347 0.768 0.784 0.976 1.312 0.208 0.523 0.312 1.107 0.312 1.752 0 0.965-0.24 1.792-0.72 2.48-0.48 0.683-1.232 1.104-2.256 1.264l-0.96 0.064h-2.688v3.904h-2.176zM17.642 18.667l-2.272-4.688 2.24-0.432 2.496 5.12h-2.464zM13.322 12.731h2.592c0.112 0 0.235-0.005 0.368-0.016s0.256-0.032 0.368-0.064c0.293-0.080 0.52-0.213 0.68-0.4 0.16-0.192 0.269-0.403 0.328-0.632 0.064-0.235 0.096-0.456 0.096-0.664s-0.032-0.427-0.096-0.656c-0.059-0.235-0.168-0.445-0.328-0.632-0.16-0.192-0.387-0.328-0.68-0.408-0.112-0.032-0.235-0.053-0.368-0.064s-0.256-0.016-0.368-0.016h-2.592v3.552zM20.691 18.667v-11.52h2.176v11.52h-2.176zM23.933 18.667v-11.52h4.864c0.112 0 0.261 0.005 0.448 0.016 0.192 0.005 0.363 0.021 0.512 0.048 0.688 0.107 1.251 0.333 1.688 0.68 0.443 0.347 0.768 0.784 0.976 1.312 0.208 0.523 0.312 1.107 0.312 1.752s-0.107 1.232-0.32 1.76c-0.208 0.523-0.533 0.957-0.976 1.304-0.437 0.347-0.997 0.573-1.68 0.68-0.149 0.021-0.32 0.037-0.512 0.048s-0.341 0.016-0.448 0.016h-2.688v3.904h-2.176zM26.109 12.731h2.592c0.112 0 0.235-0.005 0.368-0.016s0.256-0.032 0.368-0.064c0.293-0.080 0.52-0.213 0.68-0.4 0.16-0.192 0.269-0.403 0.328-0.632 0.064-0.235 0.096-0.456 0.096-0.664s-0.032-0.427-0.096-0.656c-0.059-0.235-0.168-0.445-0.328-0.632-0.16-0.192-0.387-0.328-0.68-0.408-0.112-0.032-0.235-0.053-0.368-0.064s-0.256-0.016-0.368-0.016h-2.592v3.552zM6.064 31.573c-1.152 0-2.147-0.251-2.984-0.752-0.832-0.501-1.475-1.203-1.928-2.104-0.448-0.901-0.672-1.949-0.672-3.144s0.224-2.243 0.672-3.144c0.453-0.901 1.096-1.603 1.928-2.104 0.837-0.501 1.832-0.752 2.984-0.752 1.323 0 2.432 0.328 3.328 0.984 0.901 0.656 1.536 1.544 1.904 2.664l-2.192 0.608c-0.213-0.699-0.573-1.24-1.080-1.624-0.507-0.389-1.16-0.584-1.96-0.584-0.731 0-1.341 0.163-1.832 0.488-0.485 0.325-0.851 0.784-1.096 1.376s-0.368 1.288-0.368 2.088c0 0.8 0.123 1.496 0.368 2.088s0.611 1.051 1.096 1.376c0.491 0.325 1.101 0.488 1.832 0.488 0.8 0 1.453-0.195 1.96-0.584s0.867-0.931 1.080-1.624l2.192 0.608c-0.368 1.12-1.003 2.008-1.904 2.664-0.896 0.656-2.005 0.984-3.328 0.984zM14.056 31.333v-4.688l-3.936-6.832h2.544l2.496 4.336 2.496-4.336h2.544l-3.936 6.832v4.688h-2.208zM24.288 31.573c-1.152 0-2.147-0.251-2.984-0.752-0.832-0.501-1.475-1.203-1.928-2.104-0.448-0.901-0.672-1.949-0.672-3.144s0.224-2.243 0.672-3.144c0.453-0.901 1.096-1.603 1.928-2.104 0.837-0.501 1.832-0.752 2.984-0.752 1.323 0 2.432 0.328 3.328 0.984 0.901 0.656 1.536 1.544 1.904 2.664l-2.192 0.608c-0.213-0.699-0.573-1.24-1.080-1.624-0.507-0.389-1.16-0.584-1.96-0.584-0.731 0-1.341 0.163-1.832 0.488-0.485 0.325-0.851 0.784-1.096 1.376s-0.368 1.288-0.368 2.088c0 0.8 0.123 1.496 0.368 2.088s0.611 1.051 1.096 1.376c0.491 0.325 1.101 0.488 1.832 0.488 0.8 0 1.453-0.195 1.96-0.584s0.867-0.931 1.080-1.624l2.192 0.608c-0.368 1.12-1.003 2.008-1.904 2.664-0.896 0.656-2.005 0.984-3.328 0.984zM30.108 31.333v-11.52h2.176v9.488h4.96v2.032h-7.136zM37.271 31.333v-11.52h7.52v2.032h-5.344v2.464h4.384v2.032h-4.384v2.96h5.344v2.032h-7.52z"></path>
</symbol>
<symbol id="apple" viewBox="0 0 32 32">
<path d="M23.291 28.898c-1.452 1.407-3.037 1.185-4.562 0.518-1.615-0.681-3.096-0.711-4.799 0-2.133 0.918-3.259 0.652-4.533-0.518-7.229-7.451-6.162-18.798 2.044-19.212 2 0.104 3.392 1.096 4.562 1.185 1.748-0.355 3.422-1.378 5.288-1.244 2.237 0.178 3.925 1.067 5.036 2.666-4.622 2.77-3.526 8.858 0.711 10.562-0.844 2.222-1.94 4.429-3.762 6.058l0.015-0.015zM15.855 9.597c-0.222-3.303 2.459-6.029 5.54-6.295 0.43 3.822-3.466 6.666-5.54 6.295z"></path>
</symbol>
<symbol id="arrow_down" viewBox="0 0 32 32">
<path d="M31.212 14.108c-0.248-0.25-0.542-0.448-0.867-0.583s-0.673-0.205-1.025-0.205c-0.352 0-0.7 0.070-1.025 0.205s-0.619 0.333-0.867 0.583l-8.766 8.793v-20.223c0-0.707-0.281-1.384-0.78-1.884s-1.177-0.78-1.884-0.78c-0.707 0-1.384 0.281-1.884 0.78s-0.78 1.177-0.78 1.884v20.223l-8.766-8.793c-0.502-0.502-1.182-0.784-1.892-0.784s-1.39 0.282-1.892 0.784c-0.502 0.502-0.784 1.182-0.784 1.892s0.282 1.39 0.784 1.892l13.322 13.322c0.253 0.243 0.552 0.433 0.879 0.56 0.319 0.141 0.664 0.214 1.012 0.214s0.694-0.073 1.013-0.214c0.327-0.127 0.626-0.317 0.879-0.56l13.322-13.322c0.25-0.248 0.448-0.542 0.583-0.867s0.205-0.673 0.205-1.025c0-0.352-0.070-0.7-0.205-1.025s-0.333-0.619-0.583-0.867z"></path>
</symbol>
<symbol id="bell" viewBox="0 0 33 32">
<path d="M29.76 17.522l-2.148-7.718c-0.693-2.487-2.197-4.671-4.274-6.205s-4.606-2.33-7.187-2.262c-2.581 0.068-5.065 0.997-7.057 2.639s-3.379 3.902-3.94 6.422l-1.66 7.467c-0.219 0.986-0.214 2.008 0.015 2.992s0.676 1.903 1.308 2.691 1.432 1.424 2.343 1.861c0.91 0.437 1.907 0.664 2.917 0.664h0.491c0.39 1.349 1.208 2.536 2.331 3.38s2.49 1.301 3.894 1.301 2.772-0.457 3.894-1.301c1.123-0.844 1.941-2.030 2.331-3.38h0.237c1.040 0 2.066-0.24 2.997-0.702s1.744-1.133 2.373-1.961c0.629-0.828 1.059-1.79 1.254-2.811s0.153-2.074-0.125-3.076h0.006zM25.702 21.181c-0.285 0.378-0.653 0.684-1.077 0.895s-0.891 0.319-1.364 0.317h-13.185c-0.459-0-0.912-0.103-1.326-0.302s-0.778-0.488-1.065-0.846c-0.287-0.358-0.49-0.776-0.594-1.223s-0.106-0.912-0.007-1.36l1.66-7.48c0.381-1.722 1.327-3.266 2.688-4.388s3.057-1.756 4.82-1.802c1.763-0.046 3.49 0.499 4.907 1.548s2.443 2.542 2.913 4.242l2.143 7.718c0.129 0.456 0.15 0.936 0.061 1.401s-0.286 0.904-0.575 1.279z"></path>
</symbol>
<symbol id="eye" viewBox="0 0 32 32">
<path d="M16 7.158c-9.642 0-12.539 8.358-12.566 8.443l-0.134 0.399 0.133 0.399c0.028 0.085 2.925 8.443 12.567 8.443s12.539-8.358 12.566-8.443l0.134-0.399-0.133-0.399c-0.028-0.085-2.925-8.443-12.567-8.443zM16 21.053c-2.787 0-5.053-2.266-5.053-5.053s2.266-5.053 5.053-5.053c2.787 0 5.053 2.266 5.053 5.053s-2.266 5.053-5.053 5.053z"></path>
<path d="M16 13.474c-1.369 0-2.526 1.157-2.526 2.526s1.157 2.526 2.526 2.526c1.369 0 2.526-1.157 2.526-2.526s-1.157-2.526-2.526-2.526z"></path>
</symbol>
<symbol id="facebook" viewBox="0 0 32 32">
<path d="M16 0.762c-8.416 0-15.238 6.847-15.238 15.294 0 7.172 4.92 13.191 11.557 14.844v-10.17h-3.142v-4.674h3.142v-2.014c0-5.205 2.347-7.618 7.439-7.618 0.965 0 2.631 0.19 3.313 0.38v4.236c-0.36-0.038-0.984-0.057-1.76-0.057-2.498 0-3.464 0.95-3.464 3.42v1.653h4.977l-0.855 4.674h-4.122v10.508c7.545-0.915 13.392-7.363 13.392-15.182-0.001-8.447-6.823-15.294-15.238-15.294z"></path>
</symbol>
<symbol id="filter" viewBox="0 0 32 32">
<path stroke-linejoin="miter" stroke-linecap="round" stroke-miterlimit="10" stroke-width="2" d="M28.333 16h-16.473M6.045 16h-2.379M6.045 16c0-0.771 0.306-1.51 0.851-2.055s1.284-0.851 2.055-0.851c0.771 0 1.51 0.306 2.055 0.851s0.851 1.284 0.851 2.055c0 0.771-0.306 1.51-0.851 2.055s-1.284 0.851-2.055 0.851c-0.771 0-1.51-0.306-2.055-0.851s-0.851-1.284-0.851-2.055zM28.333 24.809h-7.664M20.669 24.809c0 0.771-0.307 1.511-0.852 2.057s-1.285 0.851-2.056 0.851c-0.771 0-1.51-0.308-2.055-0.853s-0.851-1.284-0.851-2.055M20.669 24.809c0-0.771-0.307-1.51-0.852-2.055s-1.285-0.852-2.056-0.852c-0.771 0-1.51 0.306-2.055 0.851s-0.851 1.284-0.851 2.055M14.855 24.809h-11.188M28.333 7.191h-4.14M18.379 7.191h-14.712M18.379 7.191c0-0.771 0.306-1.51 0.851-2.055s1.284-0.851 2.055-0.851c0.382 0 0.76 0.075 1.112 0.221s0.673 0.36 0.943 0.63 0.484 0.59 0.63 0.943c0.146 0.353 0.221 0.731 0.221 1.112s-0.075 0.76-0.221 1.112c-0.146 0.353-0.36 0.673-0.63 0.943s-0.59 0.484-0.943 0.63c-0.353 0.146-0.731 0.221-1.112 0.221-0.771 0-1.51-0.306-2.055-0.851s-0.851-1.284-0.851-2.055z"></path>
</symbol>
<symbol id="google" viewBox="0 0 32 32">
<path fill="#ffc107" style="fill: var(--color1, #ffc107)" d="M28.451 13.513h-1.023v-0.053h-11.429v5.079h7.177c-1.047 2.957-3.86 5.079-7.177 5.079-4.208 0-7.619-3.411-7.619-7.619s3.411-7.619 7.619-7.619c1.942 0 3.709 0.733 5.055 1.93l3.592-3.592c-2.268-2.114-5.302-3.417-8.646-3.417-7.013 0-12.698 5.686-12.698 12.698s5.686 12.698 12.698 12.698c7.013 0 12.699-5.686 12.699-12.698 0-0.851-0.088-1.683-0.247-2.487z"></path>
<path fill="#ff3d00" style="fill: var(--color2, #ff3d00)" d="M4.766 10.090l4.172 3.060c1.129-2.795 3.863-4.768 7.062-4.768 1.942 0 3.709 0.733 5.055 1.929l3.592-3.592c-2.268-2.114-5.302-3.417-8.646-3.417-4.877 0-9.107 2.754-11.234 6.788z"></path>
<path fill="#4caf50" style="fill: var(--color3, #4caf50)" d="M16 28.698c3.28 0 6.26-1.255 8.514-3.296l-3.93-3.326c-1.318 1.002-2.928 1.544-4.583 1.543-3.303 0-6.107-2.106-7.164-5.045l-4.141 3.19c2.102 4.112 6.37 6.934 11.305 6.934z"></path>
<path fill="#1976d2" style="fill: var(--color4, #1976d2)" d="M28.451 13.513h-1.023v-0.053h-11.429v5.079h7.177c-0.501 1.407-1.403 2.637-2.595 3.537l0.002-0.001 3.93 3.326c-0.278 0.253 4.185-3.052 4.185-9.401 0-0.851-0.088-1.683-0.247-2.487z"></path>
</symbol>
<symbol id="hart" viewBox="0 0 32 32">
<path stroke-linejoin="round" stroke-linecap="round" stroke-miterlimit="4" stroke-width="3.3333" d="M15.681 27.805c-2.894-1.781-5.587-3.878-8.029-6.251-1.717-1.71-3.024-3.794-3.822-6.093-1.435-4.46 0.241-9.566 4.931-11.077 2.465-0.793 5.156-0.34 7.233 1.219 2.078-1.557 4.769-2.010 7.233-1.219 4.69 1.511 6.377 6.617 4.943 11.077-0.797 2.299-2.104 4.383-3.822 6.093-2.442 2.374-5.135 4.47-8.029 6.251l-0.313 0.195-0.325-0.195z"></path>
</symbol>
<symbol id="lock" viewBox="0 0 32 32">
<path d="M16 22.4c0.884 0 1.6-0.716 1.6-1.6s-0.716-1.6-1.6-1.6c-0.884 0-1.6 0.716-1.6 1.6s0.716 1.6 1.6 1.6z"></path>
<path d="M24 9.6h-1.6v-3.024c0-1.697-0.674-3.325-1.875-4.526s-2.828-1.875-4.525-1.875c-1.697 0-3.325 0.674-4.525 1.875s-1.875 2.828-1.875 4.526v3.024h-1.6c-1.273 0-2.494 0.506-3.394 1.406s-1.406 2.121-1.406 3.394v12.8c0 1.273 0.506 2.494 1.406 3.394s2.121 1.406 3.394 1.406h16c1.273 0 2.494-0.506 3.394-1.406s1.406-2.121 1.406-3.394v-12.8c0-1.273-0.506-2.494-1.406-3.394s-2.121-1.406-3.394-1.406zM12.8 6.576c-0.022-0.872 0.303-1.716 0.903-2.349s1.426-1.002 2.297-1.027c0.871 0.025 1.697 0.394 2.297 1.027s0.924 1.477 0.903 2.349v3.024h-6.4v-3.024zM16 25.6c-0.949 0-1.877-0.282-2.667-0.809s-1.405-1.277-1.768-2.154c-0.363-0.877-0.458-1.842-0.273-2.773s0.642-1.786 1.314-2.458c0.671-0.671 1.527-1.128 2.458-1.314s1.896-0.090 2.773 0.273c0.877 0.363 1.627 0.979 2.154 1.768s0.809 1.717 0.809 2.667c0 1.273-0.506 2.494-1.406 3.394s-2.121 1.406-3.394 1.406z"></path>
</symbol>
<symbol id="mail" viewBox="0 0 32 32">
<path d="M26.105 5.895h-20.211c-1.389 0-2.514 1.137-2.514 2.526l-0.013 15.158c0 1.389 1.137 2.526 2.526 2.526h20.211c1.389 0 2.526-1.137 2.526-2.526v-15.158c0-1.389-1.137-2.526-2.526-2.526zM25.6 11.263l-8.931 5.583c-0.404 0.253-0.935 0.253-1.339 0l-8.931-5.583c-0.127-0.071-0.238-0.167-0.326-0.282s-0.153-0.247-0.189-0.388c-0.036-0.141-0.043-0.287-0.021-0.431s0.073-0.281 0.15-0.404c0.077-0.123 0.178-0.229 0.297-0.312s0.254-0.141 0.396-0.17c0.142-0.029 0.289-0.029 0.431-0s0.277 0.087 0.397 0.169l8.463 5.293 8.463-5.293c0.119-0.083 0.254-0.14 0.397-0.169s0.289-0.029 0.431 0c0.142 0.029 0.277 0.087 0.396 0.17s0.22 0.189 0.297 0.312c0.077 0.123 0.128 0.261 0.151 0.404s0.015 0.29-0.021 0.431c-0.036 0.141-0.1 0.273-0.189 0.388s-0.199 0.211-0.326 0.282z"></path>
</symbol>
<symbol id="plus" viewBox="0 0 32 32">
<path d="M29.714 18.281h-11.429v11.428c0 0.606-0.241 1.188-0.669 1.616s-1.010 0.669-1.616 0.669-1.188-0.241-1.616-0.669c-0.429-0.429-0.669-1.010-0.669-1.616v-11.428h-11.429c-0.606 0-1.188-0.241-1.616-0.669s-0.669-1.010-0.669-1.616c0-0.606 0.241-1.188 0.669-1.616s1.010-0.669 1.616-0.669h11.429v-11.429c0-0.606 0.241-1.188 0.669-1.616s1.010-0.669 1.616-0.669c0.606 0 1.188 0.241 1.616 0.669s0.669 1.010 0.669 1.616v11.429h11.429c0.606 0 1.188 0.241 1.616 0.669s0.669 1.010 0.669 1.616c0 0.606-0.241 1.188-0.669 1.616s-1.010 0.669-1.616 0.669z"></path>
</symbol>
<symbol id="Profile" viewBox="0 0 32 32">
<path d="M24.47 8.466c0 4.699-3.768 8.467-8.47 8.467-4.701 0-8.47-3.768-8.47-8.467s3.769-8.466 8.47-8.466c4.703 0 8.47 3.766 8.47 8.466zM16 32c-6.94 0-12.8-1.128-12.8-5.48 0-4.354 5.897-5.442 12.8-5.442 6.942 0 12.8 1.128 12.8 5.48 0 4.354-5.897 5.442-12.8 5.442z"></path>
</symbol>
<symbol id="close" viewBox="0 0 32 32">
    <path stroke-linejoin="round" stroke-linecap="round" stroke-miterlimit="4" stroke-width="3" d="M24    8l-16 16"></path>
    <path stroke-linejoin="round" stroke-linecap="round" stroke-miterlimit="4" stroke-width="3" d="M8     8l16 16"></path>
  </symbol>
<symbol id="check" viewBox="0 0 46 32">
<path d="M43.729 0.78c0.5 0.5 0.78 1.178 0.78 1.884s-0.28 1.384-0.78 1.884l-24.889 24.889c-0.5 0.499-1.178 0.78-1.884 0.78s-1.384-0.28-1.884-0.78l-14.222-14.222c-0.262-0.244-0.472-0.539-0.618-0.866s-0.224-0.68-0.23-1.038c-0.006-0.358 0.060-0.714 0.194-1.046s0.334-0.634 0.587-0.887c0.253-0.253 0.555-0.453 0.887-0.587s0.688-0.2 1.046-0.194c0.358 0.006 0.711 0.085 1.038 0.23s0.622 0.356 0.866 0.618l12.338 12.338 23.004-23.004c0.5-0.499 1.178-0.78 1.884-0.78s1.385 0.281 1.884 0.78z"></path>
</symbol>
<symbol id="jam-menu" viewBox="0 0 33 32">
<path d="M14 21.333h5.333c0.34 0 0.667 0.131 0.914 0.364s0.396 0.552 0.416 0.891c0.020 0.339-0.091 0.673-0.309 0.934s-0.527 0.428-0.865 0.468l-0.156 0.009h-5.333c-0.34-0-0.667-0.131-0.914-0.364s-0.396-0.552-0.416-0.891 0.090-0.673 0.309-0.934c0.218-0.261 0.527-0.428 0.865-0.468l0.156-0.009zM11.333 14.667h10.667c0.34 0 0.667 0.131 0.914 0.364s0.396 0.552 0.416 0.891c0.020 0.339-0.091 0.673-0.309 0.934s-0.527 0.428-0.865 0.468l-0.156 0.009h-10.667c-0.34-0-0.667-0.131-0.914-0.364s-0.396-0.552-0.416-0.891 0.090-0.673 0.309-0.934c0.218-0.261 0.528-0.428 0.865-0.468l0.156-0.009zM7.333 8h18.667c0.34 0 0.667 0.13 0.914 0.364s0.396 0.552 0.416 0.891c0.020 0.339-0.091 0.673-0.309 0.934s-0.527 0.428-0.865 0.468l-0.156 0.009h-18.667c-0.34-0-0.667-0.13-0.914-0.364s-0.396-0.552-0.416-0.891c-0.020-0.339 0.090-0.673 0.309-0.934s0.528-0.428 0.865-0.468l0.156-0.009z"></path>
</symbol>
<symbol id="search" viewBox="0 0 30 32">
<path fill="none" stroke="#fff" style="stroke: var(--color1, #fff)" stroke-linejoin="miter" stroke-linecap="butt" stroke-miterlimit="10" stroke-width="3.7647" d="M13.005 4.707c-1.828 0-3.614 0.542-5.134 1.557s-2.704 2.459-3.403 4.147c-0.699 1.688-0.882 3.546-0.526 5.339s1.237 3.439 2.529 4.731c1.292 1.292 2.939 2.172 4.731 2.529s3.651 0.174 5.339-0.526c1.689-0.699 3.132-1.884 4.147-3.403s1.557-3.306 1.557-5.134c-0-2.451-0.974-4.801-2.707-6.534s-4.083-2.707-6.534-2.707v0z"></path>
<path fill="none" stroke="#fff" style="stroke: var(--color1, #fff)" stroke-linejoin="miter" stroke-linecap="round" stroke-miterlimit="10" stroke-width="3.7647" d="M19.899 20.841l6.453 6.453"></path>
</symbol>
<symbol id="clock" viewBox="0 0 30 32">
<path d="M5.087 8.383l-1.907-1.907c-0.055-0.055-0.125-0.092-0.201-0.108s-0.155-0.007-0.227 0.022c-0.072 0.030-0.133 0.080-0.176 0.145s-0.066 0.141-0.066 0.218v5.718c0 0.216 0.176 0.392 0.392 0.392h5.719c0.078 0 0.154-0.023 0.218-0.066s0.115-0.104 0.145-0.176c0.030-0.072 0.037-0.151 0.022-0.227s-0.053-0.146-0.108-0.201l-2.13-2.13c1.389-1.939 3.413-3.33 5.721-3.931s4.754-0.373 6.912 0.643c2.158 1.016 3.891 2.756 4.898 4.918s1.224 4.608 0.614 6.914c-0.61 2.306-2.010 4.324-3.954 5.705s-4.312 2.035-6.69 1.851c-2.378-0.185-4.616-1.197-6.325-2.861s-2.78-3.874-3.027-6.246c-0.032-0.311-0.186-0.596-0.428-0.793s-0.553-0.29-0.863-0.258c-0.311 0.032-0.596 0.186-0.793 0.428s-0.29 0.553-0.258 0.863c0.302 2.904 1.606 5.611 3.689 7.656s4.814 3.301 7.722 3.55c2.909 0.249 5.813-0.524 8.214-2.185s4.146-4.108 4.937-6.918c0.791-2.81 0.578-5.808-0.603-8.477s-3.256-4.844-5.867-6.149c-2.612-1.305-5.596-1.658-8.44-1s-5.37 2.288-7.142 4.608h0.002zM14.666 9.727c0.312 0 0.611 0.124 0.832 0.345s0.345 0.52 0.345 0.832v4.693l3.181 1.274c0.28 0.122 0.502 0.349 0.618 0.632s0.117 0.6 0.004 0.884c-0.114 0.284-0.333 0.512-0.613 0.637s-0.596 0.136-0.883 0.031l-3.921-1.569c-0.218-0.087-0.405-0.238-0.537-0.433s-0.202-0.424-0.202-0.659v-5.489c0-0.312 0.124-0.611 0.345-0.832s0.52-0.345 0.832-0.345z"></path>
</symbol>
<symbol id="up-arrow" viewBox="0 0 32 32">
<path stroke-linejoin="round" stroke-linecap="round" stroke-miterlimit="4" stroke-width="3" d="M7 20.5l9-9 9 9"></path>
</symbol>
</defs>
</svg>
