<svg width="0" height="0" class="hidden">
  <symbol fill="none" xmlns="http://www.w3.org/2000/svg" viewBox="0 0 18 19" id="eye">
    <path d="M8.99997 4.25C3.27522 4.25 1.55472 9.21275 1.53897 9.263L1.45947 9.5L1.53822 9.737C1.55472 9.78725 3.27522 14.75 8.99997 14.75C14.7247 14.75 16.4452 9.78725 16.461 9.737L16.5405 9.5L16.4617 9.263C16.4452 9.21275 14.7247 4.25 8.99997 4.25ZM8.99997 12.5C7.34547 12.5 5.99997 11.1545 5.99997 9.5C5.99997 7.8455 7.34547 6.5 8.99997 6.5C10.6545 6.5 12 7.8455 12 9.5C12 11.1545 10.6545 12.5 8.99997 12.5Z" fill="#8F97A3"></path>
    <path d="M9 8C8.187 8 7.5 8.687 7.5 9.5C7.5 10.313 8.187 11 9 11C9.813 11 10.5 10.313 10.5 9.5C10.5 8.687 9.813 8 9 8Z" fill="#8F97A3"></path>
  </symbol>
  <symbol fill="none" xmlns="http://www.w3.org/2000/svg" viewBox="0 0 21 20" id="apple">
    <path d="M15.2845 18.4646C14.3318 19.388 13.2917 19.2422 12.2904 18.8048C11.2308 18.3576 10.2587 18.3382 9.14083 18.8048C7.741 19.4075 7.00221 19.2325 6.1662 18.4646C1.42236 13.5749 2.12227 6.12861 7.5077 5.85642C8.82004 5.92447 9.73381 6.57577 10.5018 6.6341C11.6488 6.4008 12.7473 5.73005 13.9722 5.81754C15.44 5.93419 16.5482 6.51745 17.2773 7.56732C14.2444 9.38514 14.9637 13.3805 17.7439 14.4984C17.1898 15.9565 16.4705 17.405 15.2748 18.4743L15.2845 18.4646ZM10.4046 5.79809C10.2587 3.63031 12.0182 1.84165 14.0402 1.66667C14.3221 4.17469 11.7655 6.04112 10.4046 5.79809Z" fill="black"></path>
  </symbol>
  <symbol fill="none" xmlns="http://www.w3.org/2000/svg" viewBox="0 0 21 20" id="facebook">
    <g clip-path="url(#clip0_154_27)">
      <path d="M10.4998 0C4.97711 0 0.5 4.49365 0.5 10.0367C0.5 14.7436 3.72874 18.6932 8.08425 19.778V13.104H6.02229V10.0367H8.08425V8.7151C8.08425 5.29899 9.62462 3.7156 12.9662 3.7156C13.5997 3.7156 14.6929 3.84046 15.1401 3.96491V6.74509C14.9041 6.7202 14.4941 6.70775 13.9849 6.70775C12.3454 6.70775 11.7118 7.33123 11.7118 8.95196V10.0367H14.9781L14.4169 13.104H11.7118V20C16.6633 19.3998 20.5 15.1683 20.5 10.0367C20.4996 4.49365 16.0225 0 10.4998 0Z" fill="#0081F9"></path>
    </g>
    <defs>
      <clipPath id="clip0_154_27">
        <rect width="20" height="20" fill="white" transform="translate(0.5)"></rect>
      </clipPath>
    </defs>
  </symbol>
  <symbol fill="none" xmlns="http://www.w3.org/2000/svg" viewBox="0 0 21 20" id="google">
    <path d="M18.6713 8.36792H18V8.33334H10.5V11.6667H15.2096C14.5225 13.6071 12.6763 15 10.5 15C7.73877 15 5.50002 12.7613 5.50002 10C5.50002 7.23876 7.73877 5.00001 10.5 5.00001C11.7746 5.00001 12.9342 5.48084 13.8171 6.26625L16.1742 3.90917C14.6859 2.52209 12.695 1.66667 10.5 1.66667C5.89794 1.66667 2.16669 5.39792 2.16669 10C2.16669 14.6021 5.89794 18.3333 10.5 18.3333C15.1021 18.3333 18.8334 14.6021 18.8334 10C18.8334 9.44126 18.7759 8.89584 18.6713 8.36792Z" fill="#FFC107"></path>
    <path d="M3.1275 6.12125L5.86542 8.12917C6.60625 6.29501 8.40042 5.00001 10.5 5.00001C11.7746 5.00001 12.9342 5.48084 13.8171 6.26625L16.1742 3.90917C14.6858 2.52209 12.695 1.66667 10.5 1.66667C7.29917 1.66667 4.52334 3.47376 3.1275 6.12125Z" fill="#FF3D00"></path>
    <path d="M10.5 18.3333C12.6525 18.3333 14.6083 17.5096 16.0871 16.17L13.5079 13.9875C12.6431 14.6452 11.5864 15.0009 10.5 15C8.33249 15 6.49207 13.6179 5.79874 11.6892L3.08124 13.7829C4.4604 16.4817 7.26124 18.3333 10.5 18.3333Z" fill="#4CAF50"></path>
    <path d="M18.6713 8.36791H18V8.33333H10.5V11.6667H15.2096C14.8809 12.5902 14.2889 13.3972 13.5067 13.9879L13.5079 13.9871L16.0871 16.1696C15.9046 16.3354 18.8333 14.1667 18.8333 9.99999C18.8333 9.44124 18.7758 8.89583 18.6713 8.36791Z" fill="#1976D2"></path>
  </symbol>
  <symbol fill="none" xmlns="http://www.w3.org/2000/svg" viewBox="0 0 12 15" id="Profile">
    <path fill-rule="evenodd" clip-rule="evenodd" d="M9.97049 3.96829C9.97049 6.17106 8.20433 7.93733 6 7.93733C3.79642 7.93733 2.02951 6.17106 2.02951 3.96829C2.02951 1.76552 3.79642 0 6 0C8.20433 0 9.97049 1.76552 9.97049 3.96829ZM6 15C2.74678 15 0 14.4712 0 12.4312C0 10.3905 2.76404 9.88045 6 9.88045C9.25397 9.88045 12 10.4092 12 12.4492C12 14.49 9.23596 15 6 15Z" fill="#8F97A3"></path>
  </symbol>
  <symbol fill="none" xmlns="http://www.w3.org/2000/svg" viewBox="0 0 12 15" id="lock">
    <path d="M6 10.5C6.41421 10.5 6.75 10.1642 6.75 9.75C6.75 9.33579 6.41421 9 6 9C5.58579 9 5.25 9.33579 5.25 9.75C5.25 10.1642 5.58579 10.5 6 10.5Z" fill="#8F97A3"></path>
    <path d="M9.75 4.49999H9V3.08249C9 2.28684 8.68393 1.52378 8.12132 0.961169C7.55871 0.39856 6.79565 0.082489 6 0.082489C5.20435 0.082489 4.44129 0.39856 3.87868 0.961169C3.31607 1.52378 3 2.28684 3 3.08249V4.49999H2.25C1.65326 4.49999 1.08097 4.73704 0.65901 5.159C0.237053 5.58096 0 6.15325 0 6.74999V12.75C0 13.3467 0.237053 13.919 0.65901 14.341C1.08097 14.7629 1.65326 15 2.25 15H9.75C10.3467 15 10.919 14.7629 11.341 14.341C11.7629 13.919 12 13.3467 12 12.75V6.74999C12 6.15325 11.7629 5.58096 11.341 5.159C10.919 4.73704 10.3467 4.49999 9.75 4.49999ZM4.5 3.08249C4.48991 2.67396 4.64209 2.27808 4.92321 1.98149C5.20434 1.6849 5.59152 1.51177 6 1.49999C6.40848 1.51177 6.79566 1.6849 7.07679 1.98149C7.35791 2.27808 7.51009 2.67396 7.5 3.08249V4.49999H4.5V3.08249ZM6 12C5.55499 12 5.11998 11.868 4.74997 11.6208C4.37996 11.3736 4.09157 11.0222 3.92127 10.611C3.75097 10.1999 3.70642 9.74749 3.79323 9.31104C3.88005 8.87458 4.09434 8.47367 4.40901 8.159C4.72368 7.84433 5.12459 7.63004 5.56105 7.54322C5.9975 7.45641 6.4499 7.50096 6.86104 7.67126C7.27217 7.84156 7.62357 8.12995 7.87081 8.49996C8.11804 8.86997 8.25 9.30498 8.25 9.74999C8.25 10.3467 8.01295 10.919 7.59099 11.341C7.16903 11.7629 6.59674 12 6 12Z" fill="#8F97A3"></path>
  </symbol>
  <symbol fill="none" xmlns="http://www.w3.org/2000/svg" viewBox="0 0 18 19" id="mail">
    <path d="M15 3.5H3C2.175 3.5 1.5075 4.175 1.5075 5L1.5 14C1.5 14.825 2.175 15.5 3 15.5H15C15.825 15.5 16.5 14.825 16.5 14V5C16.5 4.175 15.825 3.5 15 3.5ZM14.7 6.6875L9.3975 10.0025C9.1575 10.1525 8.8425 10.1525 8.6025 10.0025L3.3 6.6875C3.2248 6.64528 3.15894 6.58825 3.10642 6.51984C3.05389 6.45143 3.0158 6.37308 2.99443 6.28953C2.97307 6.20597 2.96888 6.11895 2.98212 6.03373C2.99536 5.94851 3.02575 5.86686 3.07146 5.79373C3.11717 5.72059 3.17724 5.65749 3.24804 5.60825C3.31885 5.559 3.3989 5.52463 3.48337 5.50722C3.56784 5.48981 3.65496 5.48973 3.73947 5.50696C3.82397 5.5242 3.9041 5.5584 3.975 5.6075L9 8.75L14.025 5.6075C14.0959 5.5584 14.176 5.5242 14.2605 5.50696C14.345 5.48973 14.4322 5.48981 14.5166 5.50722C14.6011 5.52463 14.6812 5.559 14.752 5.60825C14.8228 5.65749 14.8828 5.72059 14.9285 5.79373C14.9742 5.86686 15.0046 5.94851 15.0179 6.03373C15.0311 6.11895 15.0269 6.20597 15.0056 6.28953C14.9842 6.37308 14.9461 6.45143 14.8936 6.51984C14.8411 6.58825 14.7752 6.64528 14.7 6.6875Z" fill="#8F97A3"></path>
  </symbol>
  <symbol fill="none" xmlns="http://www.w3.org/2000/svg" viewBox="0 0 24 24" id="filter">
    <path d="M21.25 12H8.895M4.534 12H2.75M4.534 12C4.534 11.4218 4.76368 10.8673 5.17251 10.4585C5.58134 10.0497 6.13583 9.82001 6.714 9.82001C7.29217 9.82001 7.84666 10.0497 8.25549 10.4585C8.66432 10.8673 8.894 11.4218 8.894 12C8.894 12.5782 8.66432 13.1327 8.25549 13.5415C7.84666 13.9503 7.29217 14.18 6.714 14.18C6.13583 14.18 5.58134 13.9503 5.17251 13.5415C4.76368 13.1327 4.534 12.5782 4.534 12ZM21.25 18.607H15.502M15.502 18.607C15.502 19.1853 15.2718 19.7404 14.8628 20.1494C14.4539 20.5583 13.8993 20.788 13.321 20.788C12.7428 20.788 12.1883 20.5573 11.7795 20.1485C11.3707 19.7397 11.141 19.1852 11.141 18.607M15.502 18.607C15.502 18.0287 15.2718 17.4746 14.8628 17.0657C14.4539 16.6567 13.8993 16.427 13.321 16.427C12.7428 16.427 12.1883 16.6567 11.7795 17.0655C11.3707 17.4743 11.141 18.0288 11.141 18.607M11.141 18.607H2.75M21.25 5.39301H18.145M13.784 5.39301H2.75M13.784 5.39301C13.784 4.81484 14.0137 4.26035 14.4225 3.85152C14.8313 3.44269 15.3858 3.21301 15.964 3.21301C16.2503 3.21301 16.5338 3.2694 16.7983 3.37896C17.0627 3.48851 17.3031 3.64909 17.5055 3.85152C17.7079 4.05395 17.8685 4.29427 17.9781 4.55876C18.0876 4.82325 18.144 5.10673 18.144 5.39301C18.144 5.67929 18.0876 5.96277 17.9781 6.22726C17.8685 6.49175 17.7079 6.73207 17.5055 6.93451C17.3031 7.13694 17.0627 7.29751 16.7983 7.40707C16.5338 7.51663 16.2503 7.57301 15.964 7.57301C15.3858 7.57301 14.8313 7.34333 14.4225 6.93451C14.0137 6.52568 13.784 5.97118 13.784 5.39301Z" stroke="black" stroke-width="1.5" stroke-miterlimit="10" stroke-linecap="round"></path>
  </symbol>
  <symbol fill="none" xmlns="http://www.w3.org/2000/svg" viewBox="0 0 24 24" id="plus">
    <rect width="24" height="24" rx="12" fill="white"></rect>
    <path d="M18 12.998H13V17.998C13 18.2632 12.8946 18.5176 12.7071 18.7051C12.5196 18.8926 12.2652 18.998 12 18.998C11.7348 18.998 11.4804 18.8926 11.2929 18.7051C11.1054 18.5176 11 18.2632 11 17.998V12.998H6C5.73478 12.998 5.48043 12.8926 5.29289 12.7051C5.10536 12.5176 5 12.2632 5 11.998C5 11.7328 5.10536 11.4784 5.29289 11.2909C5.48043 11.1034 5.73478 10.998 6 10.998H11V5.998C11 5.73278 11.1054 5.47843 11.2929 5.29089C11.4804 5.10336 11.7348 4.998 12 4.998C12.2652 4.998 12.5196 5.10336 12.7071 5.29089C12.8946 5.47843 13 5.73278 13 5.998V10.998H18C18.2652 10.998 18.5196 11.1034 18.7071 11.2909C18.8946 11.4784 19 11.7328 19 11.998C19 12.2632 18.8946 12.5176 18.7071 12.7051C18.5196 12.8926 18.2652 12.998 18 12.998Z" fill="black"></path>
  </symbol>
  <symbol fill="none" xmlns="http://www.w3.org/2000/svg" viewBox="0 0 8 8" id="arrow_down">
    <path d="M7.80296 3.52698C7.74104 3.46454 7.66737 3.41499 7.58619 3.38117C7.50502 3.34735 7.41795 3.32994 7.33002 3.32994C7.24208 3.32994 7.15502 3.34735 7.07385 3.38117C6.99267 3.41499 6.919 3.46454 6.85708 3.52698L4.66555 5.72517V0.669333C4.66555 0.492668 4.59537 0.323239 4.47045 0.198317C4.34553 0.073396 4.1761 0.00321579 3.99943 0.00321579C3.82277 0.00321579 3.65334 0.073396 3.52842 0.198317C3.40349 0.323239 3.33331 0.492668 3.33331 0.669333V5.72517L1.14179 3.52698C1.01635 3.40155 0.846231 3.33108 0.668843 3.33108C0.491455 3.33108 0.321332 3.40155 0.1959 3.52698C0.0704672 3.65241 0 3.82253 0 3.99992C0 4.17731 0.0704672 4.34743 0.1959 4.47287L3.52649 7.80345C3.58984 7.8641 3.66454 7.91163 3.74631 7.94334C3.82604 7.97858 3.91226 7.99678 3.99943 7.99678C4.08661 7.99678 4.17282 7.97858 4.25256 7.94334C4.33432 7.91163 4.40902 7.8641 4.47238 7.80345L7.80296 4.47287C7.8654 4.41094 7.91495 4.33727 7.94877 4.2561C7.98259 4.17492 8 4.08786 8 3.99992C8 3.91199 7.98259 3.82492 7.94877 3.74375C7.91495 3.66258 7.8654 3.5889 7.80296 3.52698Z" fill="black"></path>
  </symbol>
  <symbol fill="none" xmlns="http://www.w3.org/2000/svg" viewBox="0 0 18 22" id="bell">
    <path d="M8.99999 0C7.14348 0 5.363 0.737498 4.05024 2.05025C2.73749 3.36301 1.99999 5.14348 1.99999 7V10.528C2.00014 10.6831 1.96419 10.8362 1.89499 10.975L0.177991 14.408C0.0941178 14.5757 0.0545135 14.7621 0.0629399 14.9494C0.0713663 15.1368 0.127544 15.3188 0.226136 15.4783C0.324729 15.6379 0.462464 15.7695 0.626258 15.8608C0.790053 15.9521 0.974469 16 1.16199 16H16.838C17.0255 16 17.2099 15.9521 17.3737 15.8608C17.5375 15.7695 17.6753 15.6379 17.7738 15.4783C17.8724 15.3188 17.9286 15.1368 17.937 14.9494C17.9455 14.7621 17.9059 14.5757 17.822 14.408L16.106 10.975C16.0365 10.8362 16.0002 10.6832 16 10.528V7C16 5.14348 15.2625 3.36301 13.9497 2.05025C12.637 0.737498 10.8565 0 8.99999 0ZM8.99999 19C8.37934 19.0003 7.77386 18.8081 7.26701 18.4499C6.76016 18.0917 6.37688 17.5852 6.16999 17H11.83C11.6231 17.5852 11.2398 18.0917 10.733 18.4499C10.2261 18.8081 9.62064 19.0003 8.99999 19Z" fill="black"></path>
  </symbol>
  <symbol fill="none" xmlns="http://www.w3.org/2000/svg" viewBox="0 0 24 24" id="hart">
    <path d="M7.5 4C4.4625 4 2 6.4625 2 9.5C2 15 8.5 20 12 21.163C15.5 20 22 15 22 9.5C22 6.4625 19.5375 4 16.5 4C14.64 4 12.995 4.9235 12 6.337C11.4928 5.61469 10.819 5.0252 10.0357 4.61841C9.25238 4.21162 8.38263 3.9995 7.5 4Z" fill="black" stroke="black" stroke-width="2" stroke-linecap="round" stroke-linejoin="round"></path>
  </symbol>
  <symbol fill="none" xmlns="http://www.w3.org/2000/svg" viewBox="0 0 32 32" id="close">
    <path stroke-linejoin="round" stroke-linecap="round" stroke-miterlimit="4" stroke-width="3" d="M24    8l-16 16"></path>
    <path stroke-linejoin="round" stroke-linecap="round" stroke-miterlimit="4" stroke-width="3" d="M8     8l16 16"></path>
  </symbol>
</svg>