<svg aria-hidden="true" style="position: absolute; width: 0; height: 0; overflow: hidden;" version="1.1" xmlns="http://www.w3.org/2000/svg" xmlns:xlink="http://www.w3.org/1999/xlink">
<defs>
<symbol id="apple" viewBox="0 0 32 32">
<path d="M23.291 28.898c-1.452 1.407-3.037 1.185-4.562 0.518-1.615-0.681-3.096-0.711-4.799 0-2.133 0.918-3.259 0.652-4.533-0.518-7.229-7.451-6.162-18.798 2.044-19.212 2 0.104 3.392 1.096 4.562 1.185 1.748-0.355 3.422-1.378 5.288-1.244 2.237 0.178 3.925 1.067 5.036 2.666-4.622 2.77-3.526 8.858 0.711 10.562-0.844 2.222-1.94 4.429-3.762 6.058l0.015-0.015zM15.855 9.597c-0.222-3.303 2.459-6.029 5.54-6.295 0.43 3.822-3.466 6.666-5.54 6.295z"></path>
</symbol>
<symbol id="arrow_down" viewBox="0 0 32 32">
<path d="M31.212 14.108c-0.248-0.25-0.542-0.448-0.867-0.583s-0.673-0.205-1.025-0.205c-0.352 0-0.7 0.070-1.025 0.205s-0.619 0.333-0.867 0.583l-8.766 8.793v-20.223c0-0.707-0.281-1.384-0.78-1.884s-1.177-0.78-1.884-0.78c-0.707 0-1.384 0.281-1.884 0.78s-0.78 1.177-0.78 1.884v20.223l-8.766-8.793c-0.502-0.502-1.182-0.784-1.892-0.784s-1.39 0.282-1.892 0.784c-0.502 0.502-0.784 1.182-0.784 1.892s0.282 1.39 0.784 1.892l13.322 13.322c0.253 0.243 0.552 0.433 0.879 0.56 0.319 0.141 0.664 0.214 1.012 0.214s0.694-0.073 1.013-0.214c0.327-0.127 0.626-0.317 0.879-0.56l13.322-13.322c0.25-0.248 0.448-0.542 0.583-0.867s0.205-0.673 0.205-1.025c0-0.352-0.070-0.7-0.205-1.025s-0.333-0.619-0.583-0.867z"></path>
</symbol>
<symbol id="bell" viewBox="0 0 32 32">
<path d="M16 0c-2.7 0-5.29 1.073-7.2 2.982s-2.982 4.499-2.982 7.2v5.132c0 0.226-0.052 0.448-0.153 0.65l-2.497 4.993c-0.122 0.244-0.18 0.515-0.167 0.788s0.094 0.537 0.237 0.769c0.143 0.232 0.344 0.424 0.582 0.556s0.506 0.202 0.779 0.202h22.801c0.273 0 0.541-0.070 0.779-0.202s0.439-0.324 0.582-0.556c0.143-0.232 0.225-0.497 0.237-0.769s-0.045-0.544-0.167-0.788l-2.496-4.993c-0.101-0.202-0.154-0.424-0.154-0.65v-5.132c0-2.7-1.073-5.29-2.982-7.2s-4.499-2.982-7.2-2.982zM16 27.636c-0.903 0-1.783-0.279-2.521-0.8s-1.295-1.258-1.596-2.109h8.233c-0.301 0.851-0.858 1.588-1.596 2.109s-1.618 0.801-2.521 0.8z"></path>
</symbol>
<symbol id="eye" viewBox="0 0 32 32">
<path d="M16 7.158c-9.642 0-12.539 8.358-12.566 8.443l-0.134 0.399 0.133 0.399c0.028 0.085 2.925 8.443 12.567 8.443s12.539-8.358 12.566-8.443l0.134-0.399-0.133-0.399c-0.028-0.085-2.925-8.443-12.567-8.443zM16 21.053c-2.787 0-5.053-2.266-5.053-5.053s2.266-5.053 5.053-5.053c2.787 0 5.053 2.266 5.053 5.053s-2.266 5.053-5.053 5.053z"></path>
<path d="M16 13.474c-1.369 0-2.526 1.157-2.526 2.526s1.157 2.526 2.526 2.526c1.369 0 2.526-1.157 2.526-2.526s-1.157-2.526-2.526-2.526z"></path>
</symbol>
<symbol id="facebook" viewBox="0 0 32 32">
<path d="M16 0.762c-8.416 0-15.238 6.847-15.238 15.294 0 7.172 4.92 13.191 11.557 14.844v-10.17h-3.142v-4.674h3.142v-2.014c0-5.205 2.347-7.618 7.439-7.618 0.965 0 2.631 0.19 3.313 0.38v4.236c-0.36-0.038-0.984-0.057-1.76-0.057-2.498 0-3.464 0.95-3.464 3.42v1.653h4.977l-0.855 4.674h-4.122v10.508c7.545-0.915 13.392-7.363 13.392-15.182-0.001-8.447-6.823-15.294-15.238-15.294z"></path>
</symbol>
<symbol id="filter" viewBox="0 0 32 32">
<path stroke-linejoin="miter" stroke-linecap="round" stroke-miterlimit="10" stroke-width="2" d="M28.333 16h-16.473M6.045 16h-2.379M6.045 16c0-0.771 0.306-1.51 0.851-2.055s1.284-0.851 2.055-0.851c0.771 0 1.51 0.306 2.055 0.851s0.851 1.284 0.851 2.055c0 0.771-0.306 1.51-0.851 2.055s-1.284 0.851-2.055 0.851c-0.771 0-1.51-0.306-2.055-0.851s-0.851-1.284-0.851-2.055zM28.333 24.809h-7.664M20.669 24.809c0 0.771-0.307 1.511-0.852 2.057s-1.285 0.851-2.056 0.851c-0.771 0-1.51-0.308-2.055-0.853s-0.851-1.284-0.851-2.055M20.669 24.809c0-0.771-0.307-1.51-0.852-2.055s-1.285-0.852-2.056-0.852c-0.771 0-1.51 0.306-2.055 0.851s-0.851 1.284-0.851 2.055M14.855 24.809h-11.188M28.333 7.191h-4.14M18.379 7.191h-14.712M18.379 7.191c0-0.771 0.306-1.51 0.851-2.055s1.284-0.851 2.055-0.851c0.382 0 0.76 0.075 1.112 0.221s0.673 0.36 0.943 0.63 0.484 0.59 0.63 0.943c0.146 0.353 0.221 0.731 0.221 1.112s-0.075 0.76-0.221 1.112c-0.146 0.353-0.36 0.673-0.63 0.943s-0.59 0.484-0.943 0.63c-0.353 0.146-0.731 0.221-1.112 0.221-0.771 0-1.51-0.306-2.055-0.851s-0.851-1.284-0.851-2.055z"></path>
</symbol>
<symbol id="google" viewBox="0 0 32 32">
<path fill="#ffc107" style="fill: var(--color1, #ffc107)" d="M28.451 13.513h-1.023v-0.053h-11.429v5.079h7.177c-1.047 2.957-3.86 5.079-7.177 5.079-4.208 0-7.619-3.411-7.619-7.619s3.411-7.619 7.619-7.619c1.942 0 3.709 0.733 5.055 1.93l3.592-3.592c-2.268-2.114-5.302-3.417-8.646-3.417-7.013 0-12.698 5.686-12.698 12.698s5.686 12.698 12.698 12.698c7.013 0 12.699-5.686 12.699-12.698 0-0.851-0.088-1.683-0.247-2.487z"></path>
<path fill="#ff3d00" style="fill: var(--color2, #ff3d00)" d="M4.766 10.090l4.172 3.060c1.129-2.795 3.863-4.768 7.062-4.768 1.942 0 3.709 0.733 5.055 1.929l3.592-3.592c-2.268-2.114-5.302-3.417-8.646-3.417-4.877 0-9.107 2.754-11.234 6.788z"></path>
<path fill="#4caf50" style="fill: var(--color3, #4caf50)" d="M16 28.698c3.28 0 6.26-1.255 8.514-3.296l-3.93-3.326c-1.318 1.002-2.928 1.544-4.583 1.543-3.303 0-6.107-2.106-7.164-5.045l-4.141 3.19c2.102 4.112 6.37 6.934 11.305 6.934z"></path>
<path fill="#1976d2" style="fill: var(--color4, #1976d2)" d="M28.451 13.513h-1.023v-0.053h-11.429v5.079h7.177c-0.501 1.407-1.403 2.637-2.595 3.537l0.002-0.001 3.93 3.326c-0.278 0.253 4.185-3.052 4.185-9.401 0-0.851-0.088-1.683-0.247-2.487z"></path>
</symbol>
<symbol id="hart" viewBox="0 0 32 32">
<path stroke-linejoin="round" stroke-linecap="round" stroke-miterlimit="4" stroke-width="2.6667" d="M10 5.333c-4.050 0-7.333 3.283-7.333 7.333 0 7.333 8.667 14 13.333 15.551 4.667-1.551 13.333-8.217 13.333-15.551 0-4.050-3.283-7.333-7.333-7.333-2.48 0-4.673 1.231-6 3.116-0.676-0.963-1.575-1.749-2.619-2.291s-2.204-0.825-3.381-0.825z"></path>
</symbol>
<symbol id="lock" viewBox="0 0 32 32">
<path d="M16 22.4c0.884 0 1.6-0.716 1.6-1.6s-0.716-1.6-1.6-1.6c-0.884 0-1.6 0.716-1.6 1.6s0.716 1.6 1.6 1.6z"></path>
<path d="M24 9.6h-1.6v-3.024c0-1.697-0.674-3.325-1.875-4.526s-2.828-1.875-4.525-1.875c-1.697 0-3.325 0.674-4.525 1.875s-1.875 2.828-1.875 4.526v3.024h-1.6c-1.273 0-2.494 0.506-3.394 1.406s-1.406 2.121-1.406 3.394v12.8c0 1.273 0.506 2.494 1.406 3.394s2.121 1.406 3.394 1.406h16c1.273 0 2.494-0.506 3.394-1.406s1.406-2.121 1.406-3.394v-12.8c0-1.273-0.506-2.494-1.406-3.394s-2.121-1.406-3.394-1.406zM12.8 6.576c-0.022-0.872 0.303-1.716 0.903-2.349s1.426-1.002 2.297-1.027c0.871 0.025 1.697 0.394 2.297 1.027s0.924 1.477 0.903 2.349v3.024h-6.4v-3.024zM16 25.6c-0.949 0-1.877-0.282-2.667-0.809s-1.405-1.277-1.768-2.154c-0.363-0.877-0.458-1.842-0.273-2.773s0.642-1.786 1.314-2.458c0.671-0.671 1.527-1.128 2.458-1.314s1.896-0.090 2.773 0.273c0.877 0.363 1.627 0.979 2.154 1.768s0.809 1.717 0.809 2.667c0 1.273-0.506 2.494-1.406 3.394s-2.121 1.406-3.394 1.406z"></path>
</symbol>
<symbol id="mail" viewBox="0 0 32 32">
<path d="M26.105 5.895h-20.211c-1.389 0-2.514 1.137-2.514 2.526l-0.013 15.158c0 1.389 1.137 2.526 2.526 2.526h20.211c1.389 0 2.526-1.137 2.526-2.526v-15.158c0-1.389-1.137-2.526-2.526-2.526zM25.6 11.263l-8.931 5.583c-0.404 0.253-0.935 0.253-1.339 0l-8.931-5.583c-0.127-0.071-0.238-0.167-0.326-0.282s-0.153-0.247-0.189-0.388c-0.036-0.141-0.043-0.287-0.021-0.431s0.073-0.281 0.15-0.404c0.077-0.123 0.178-0.229 0.297-0.312s0.254-0.141 0.396-0.17c0.142-0.029 0.289-0.029 0.431-0s0.277 0.087 0.397 0.169l8.463 5.293 8.463-5.293c0.119-0.083 0.254-0.14 0.397-0.169s0.289-0.029 0.431 0c0.142 0.029 0.277 0.087 0.396 0.17s0.22 0.189 0.297 0.312c0.077 0.123 0.128 0.261 0.151 0.404s0.015 0.29-0.021 0.431c-0.036 0.141-0.1 0.273-0.189 0.388s-0.199 0.211-0.326 0.282z"></path>
</symbol>
<symbol id="plus" viewBox="0 0 32 32">
<path d="M24 17.331h-6.667v6.667c0 0.354-0.141 0.693-0.391 0.943s-0.589 0.391-0.943 0.391c-0.354 0-0.693-0.141-0.943-0.391s-0.391-0.589-0.391-0.943v-6.667h-6.667c-0.354 0-0.693-0.141-0.943-0.391s-0.391-0.589-0.391-0.943c0-0.354 0.14-0.693 0.391-0.943s0.589-0.391 0.943-0.391h6.667v-6.667c0-0.354 0.141-0.693 0.391-0.943s0.589-0.391 0.943-0.391c0.354 0 0.693 0.14 0.943 0.391s0.391 0.589 0.391 0.943v6.667h6.667c0.354 0 0.693 0.141 0.943 0.391s0.391 0.589 0.391 0.943c0 0.354-0.141 0.693-0.391 0.943s-0.589 0.391-0.943 0.391z"></path>
</symbol>
<symbol id="Profile" viewBox="0 0 32 32">
<path d="M24.47 8.466c0 4.699-3.768 8.467-8.47 8.467-4.701 0-8.47-3.768-8.47-8.467s3.769-8.466 8.47-8.466c4.703 0 8.47 3.766 8.47 8.466zM16 32c-6.94 0-12.8-1.128-12.8-5.48 0-4.354 5.897-5.442 12.8-5.442 6.942 0 12.8 1.128 12.8 5.48 0 4.354-5.897 5.442-12.8 5.442z"></path>
</symbol>
<symbol id="close" viewBox="0 0 32 32">
    <path stroke-linejoin="round" stroke-linecap="round" stroke-miterlimit="4" stroke-width="3" d="M24    8l-16 16"></path>
    <path stroke-linejoin="round" stroke-linecap="round" stroke-miterlimit="4" stroke-width="3" d="M8     8l16 16"></path>
  </symbol>
<symbol id="check" viewBox="0 0 46 32">
<path d="M43.729 0.78c0.5 0.5 0.78 1.178 0.78 1.884s-0.28 1.384-0.78 1.884l-24.889 24.889c-0.5 0.499-1.178 0.78-1.884 0.78s-1.384-0.28-1.884-0.78l-14.222-14.222c-0.262-0.244-0.472-0.539-0.618-0.866s-0.224-0.68-0.23-1.038c-0.006-0.358 0.060-0.714 0.194-1.046s0.334-0.634 0.587-0.887c0.253-0.253 0.555-0.453 0.887-0.587s0.688-0.2 1.046-0.194c0.358 0.006 0.711 0.085 1.038 0.23s0.622 0.356 0.866 0.618l12.338 12.338 23.004-23.004c0.5-0.499 1.178-0.78 1.884-0.78s1.385 0.281 1.884 0.78z"></path>
</symbol>
</defs>
</svg>
