<svg width="31" height="29" viewBox="0 0 31 29" fill="none" xmlns="http://www.w3.org/2000/svg">
<path d="M7.70455 23H1.51705V5.54545H7.75568C9.51136 5.54545 11.0227 5.89489 12.2898 6.59375C13.5568 7.28693 14.5313 8.28409 15.2131 9.58523C15.9006 10.8864 16.2443 12.4432 16.2443 14.2557C16.2443 16.0739 15.9006 17.6364 15.2131 18.9432C14.5313 20.25 13.5511 21.2528 12.2727 21.9517C11 22.6506 9.47727 23 7.70455 23ZM5.20739 19.8381H7.55114C8.64205 19.8381 9.55966 19.6449 10.304 19.2585C11.054 18.8665 11.6165 18.2614 11.9915 17.4432C12.3722 16.6193 12.5625 15.5568 12.5625 14.2557C12.5625 12.9659 12.3722 11.9119 11.9915 11.0938C11.6165 10.2756 11.0568 9.6733 10.3125 9.28693C9.56818 8.90057 8.65057 8.70739 7.55966 8.70739H5.20739V19.8381Z" fill="#C8D630"/>
<path d="M28.9176 11.6562H25.1847C25.1165 11.1733 24.9773 10.7443 24.767 10.3693C24.5568 9.98864 24.2869 9.66477 23.9574 9.39773C23.6278 9.13068 23.2472 8.92614 22.8153 8.78409C22.3892 8.64205 21.9261 8.57102 21.4261 8.57102C20.5227 8.57102 19.7358 8.79545 19.0653 9.24432C18.3949 9.6875 17.875 10.3352 17.5057 11.1875C17.1364 12.0341 16.9517 13.0625 16.9517 14.2727C16.9517 15.517 17.1364 16.5625 17.5057 17.4091C17.8807 18.2557 18.4034 18.8949 19.0739 19.3267C19.7443 19.7585 20.5199 19.9744 21.4006 19.9744C21.8949 19.9744 22.3523 19.9091 22.7727 19.7784C23.1989 19.6477 23.5767 19.4574 23.9062 19.2074C24.2358 18.9517 24.5085 18.642 24.7244 18.2784C24.946 17.9148 25.0994 17.5 25.1847 17.0341L28.9176 17.0511C28.821 17.8523 28.5795 18.625 28.1932 19.3693C27.8125 20.108 27.2983 20.7699 26.6506 21.3551C26.0085 21.9347 25.2415 22.3949 24.3494 22.7358C23.4631 23.071 22.4602 23.2386 21.3409 23.2386C19.7841 23.2386 18.392 22.8864 17.1648 22.1818C15.9432 21.4773 14.9773 20.4574 14.267 19.1222C13.5625 17.7869 13.2102 16.1705 13.2102 14.2727C13.2102 12.3693 13.5682 10.75 14.2841 9.41477C15 8.07955 15.9716 7.0625 17.1989 6.36364C18.4261 5.65909 19.8068 5.30682 21.3409 5.30682C22.3523 5.30682 23.2898 5.44886 24.1534 5.73295C25.0227 6.01705 25.7926 6.43182 26.4631 6.97727C27.1335 7.51704 27.679 8.17898 28.0994 8.96307C28.5256 9.74716 28.7983 10.6449 28.9176 11.6562Z" fill="#C8D630"/>
</svg>
